# xmcd CD database file
#
# Track frame offsets:
#	150
#	9628
#	21073
#	31773
#	48940
#	62403
#	76345
#	87270
#	99015
#	109740
#	122993
#	140058
#
# Disc length: 2031 seconds
#
# Revision: 0
# Processed by: cddbd v1.5.1PL0 Copyright (c) Steve Scherf et al.
# Submitted via: CDex 1.60beta1
#
DISCID=8b07ed0c
DTITLE=Louvin and Whitstein 152 - Hoping That You're Hoping
DYEAR=1992
DGENRE=Country
TTITLE0=Hoping That You're Hoping
TTITLE1=When I Stop Dreaming
TTITLE2=I Love You Best Of All
TTITLE3=KnoXVIlle Girl
TTITLE4=Nobody's Darlin' But Mine
TTITLE5=Put Me On The Trail To Carolina
TTITLE6=You'll Forget
TTITLE7=Love And Wealth
TTITLE8=Don't Laugh
TTITLE9=What About You
TTITLE10=I'll Be Home When I Can
TTITLE11=Stormy Horizons
EXTD=YEAR: 1992
EXTT0=
EXTT1=
EXTT2=
EXTT3=
EXTT4=
EXTT5=
EXTT6=
EXTT7=
EXTT8=
EXTT9=
EXTT10=
EXTT11=
PLAYORDER=
